<?xml version="1.0" encoding="UTF-8" standalone="no"?>
<!-- Created with Inkscape (http://www.inkscape.org/) -->

<svg
   xmlns:dc="http://purl.org/dc/elements/1.1/"
   xmlns:cc="http://creativecommons.org/ns#"
   xmlns:rdf="http://www.w3.org/1999/02/22-rdf-syntax-ns#"
   xmlns:svg="http://www.w3.org/2000/svg"
   xmlns="http://www.w3.org/2000/svg"
   xmlns:sodipodi="http://sodipodi.sourceforge.net/DTD/sodipodi-0.dtd"
   xmlns:inkscape="http://www.inkscape.org/namespaces/inkscape"
   width="168.8185mm"
   height="86.899605mm"
   viewBox="0 0 168.8185 86.899605"
   version="1.1"
   id="svg8"
   inkscape:version="0.92.3 (2405546, 2018-03-11)"
   sodipodi:docname="ipa.svg"
   inkscape:export-filename="./ipa.png"
   inkscape:export-xdpi="90"
   inkscape:export-ydpi="90">
  <defs
     id="defs2" />
  <sodipodi:namedview
     id="base"
     pagecolor="#ffffff"
     bordercolor="#666666"
     borderopacity="1.0"
     inkscape:pageopacity="1"
     inkscape:pageshadow="2"
     inkscape:zoom="0.98994949"
     inkscape:cx="292.80513"
     inkscape:cy="96.308912"
     inkscape:document-units="mm"
     inkscape:current-layer="layer1"
     showgrid="false"
     inkscape:window-width="1440"
     inkscape:window-height="832"
     inkscape:window-x="0"
     inkscape:window-y="208"
     inkscape:window-maximized="1"
     inkscape:snap-global="false"
     fit-margin-top="5"
     fit-margin-left="5"
     fit-margin-right="5"
     fit-margin-bottom="5" />
  <metadata
     id="metadata5">
    <rdf:RDF>
      <cc:Work
         rdf:about="">
        <dc:format>image/svg+xml</dc:format>
        <dc:type
           rdf:resource="http://purl.org/dc/dcmitype/StillImage" />
        <dc:title></dc:title>
      </cc:Work>
    </rdf:RDF>
  </metadata>
  <g
     inkscape:label="Layer 1"
     inkscape:groupmode="layer"
     id="layer1"
     transform="translate(15.832719,-17.488019)">
    <text
       xml:space="preserve"
       style="font-style:normal;font-weight:normal;font-size:10.58333302px;line-height:1.25;font-family:sans-serif;letter-spacing:0px;word-spacing:0px;fill:#aa0000;fill-opacity:1;stroke:none;stroke-width:0.26458332"
       x="53.402088"
       y="44.204948"
       id="text829"><tspan
         sodipodi:role="line"
         id="tspan827"
         x="53.402088"
         y="44.204948"
         style="font-size:8.81944466px;fill:#aa0000;fill-opacity:1;stroke-width:0.26458332">stress</tspan></text>
    <text
       id="text837"
       y="99.262741"
       x="55.327374"
       style="font-style:normal;font-weight:normal;font-size:10.58333302px;line-height:1.25;font-family:sans-serif;letter-spacing:0px;word-spacing:0px;fill:#aa0000;fill-opacity:1;stroke:none;stroke-width:0.26458332"
       xml:space="preserve"><tspan
         style="font-weight:bold;font-size:8.81944466px;fill:#000000;fill-opacity:1;stroke-width:0.26458332"
         y="99.262741"
         x="55.327374"
         id="tspan835"
         sodipodi:role="line">letters</tspan></text>
    <text
       xml:space="preserve"
       style="font-style:normal;font-weight:normal;font-size:10.58333302px;line-height:1.25;font-family:sans-serif;letter-spacing:0px;word-spacing:0px;fill:#008000;fill-opacity:1;stroke:none;stroke-width:0.26458332"
       x="26.701443"
       y="44.315655"
       id="text848"><tspan
         sodipodi:role="line"
         id="tspan846"
         x="26.701443"
         y="44.315655"
         style="font-size:8.81944466px;fill:#008000;fill-opacity:1;stroke-width:0.26458332">long</tspan></text>
    <text
       xml:space="preserve"
       style="font-style:normal;font-weight:normal;font-size:6.9378953px;line-height:1.25;font-family:sans-serif;letter-spacing:0px;word-spacing:0px;fill:#aa0000;fill-opacity:1;stroke:none;stroke-width:0.26458332"
       x="78.971069"
       y="26.880665"
       id="text852"><tspan
         sodipodi:role="line"
         id="tspan850"
         x="78.971069"
         y="26.880665"
         style="font-size:5.78157997px;fill:#000000;fill-opacity:1;stroke-width:0.26458332">suprasegmentals</tspan></text>
    <text
       id="text858"
       y="44.315655"
       x="90.201439"
       style="font-style:normal;font-weight:normal;font-size:10.58333302px;line-height:1.25;font-family:sans-serif;letter-spacing:0px;word-spacing:0px;fill:#008000;fill-opacity:1;stroke:none;stroke-width:0.26458332"
       xml:space="preserve"><tspan
         style="font-size:8.81944466px;fill:#0000ff;fill-opacity:1;stroke-width:0.26458332"
         y="44.315655"
         x="90.201439"
         id="tspan856"
         sodipodi:role="line">tie</tspan></text>
    <text
       id="text911"
       y="67.015236"
       x="-11.319339"
       style="font-style:normal;font-weight:normal;font-size:10.58333302px;line-height:1.25;font-family:sans-serif;letter-spacing:0px;word-spacing:0px;fill:#aa00d4;fill-opacity:1;stroke:none;stroke-width:0.26458332"
       xml:space="preserve"><tspan
         style="font-size:8.81944466px;fill:#aa00d4;fill-opacity:1;stroke-width:0.26458332"
         y="67.015236"
         x="-11.319339"
         id="tspan909"
         sodipodi:role="line">diacritics</tspan></text>
    <text
       xml:space="preserve"
       style="font-style:normal;font-weight:normal;font-size:10.58333302px;line-height:1.25;font-family:sans-serif;letter-spacing:0px;word-spacing:0px;fill:#000000;fill-opacity:1;stroke:none;stroke-width:0.26458332"
       x="106.77828"
       y="66.739136"
       id="text915"><tspan
         sodipodi:role="line"
         id="tspan913"
         x="106.77828"
         y="66.739136"
         style="font-size:17.63888931px;fill:#d45500;stroke-width:0.26458332">‖</tspan></text>
    <text
       id="text919"
       y="66.739136"
       x="66.145836"
       style="font-style:normal;font-weight:normal;font-size:10.58333302px;line-height:1.25;font-family:sans-serif;letter-spacing:0px;word-spacing:0px;fill:#000000;fill-opacity:1;stroke:none;stroke-width:0.26458332"
       xml:space="preserve"><tspan
         style="font-size:17.63888931px;fill:#d45500;stroke-width:0.26458332"
         y="66.739136"
         x="66.145836"
         id="tspan917"
         sodipodi:role="line">|</tspan></text>
    <text
       xml:space="preserve"
       style="font-style:normal;font-weight:normal;font-size:10.58333302px;line-height:1.25;font-family:sans-serif;letter-spacing:0px;word-spacing:0px;fill:#d45500;fill-opacity:1;stroke:none;stroke-width:0.26458332"
       x="118.82735"
       y="65.367554"
       id="text941"><tspan
         sodipodi:role="line"
         id="tspan939"
         x="118.82735"
         y="65.367554"
         style="font-size:8.81944466px;fill:#d45500;fill-opacity:1;stroke-width:0.26458332">breaks</tspan></text>
    <g
       id="g976">
      <g
         id="g937">
        <path
           inkscape:connector-curvature="0"
           id="path923"
           style="font-style:normal;font-weight:normal;font-size:17.63888931px;line-height:1.25;font-family:sans-serif;letter-spacing:0px;word-spacing:0px;fill:#aa00d4;fill-opacity:1;stroke:none;stroke-width:0.26458332"
           d="m 49.631636,71.279705 h -1.016304 q -0.09474,-0.645955 -0.50815,-0.973239 -0.422025,-0.318672 -1.171333,-0.318672 -0.740695,0 -1.154107,0.318672 -0.413411,0.318671 -0.525377,0.973239 h -1.016303 q 0.08613,-1.231621 0.766534,-1.851739 0.680405,-0.620117 1.929253,-0.620117 1.248847,0 1.929254,0.620117 0.680406,0.620118 0.766533,1.851739 z" />
        <path
           inkscape:connector-curvature="0"
           id="path839"
           style="font-style:normal;font-weight:normal;font-size:medium;line-height:1.25;font-family:sans-serif;letter-spacing:0px;word-spacing:0px;fill:#aa0000;fill-opacity:1;stroke:none;stroke-width:0.26458332"
           d="m 39.95953,53.198247 v 4.78007 h -1.171333 v -4.78007 z" />
        <path
           inkscape:connector-curvature="0"
           id="path841"
           style="font-style:normal;font-weight:normal;font-size:17.63888931px;line-height:1.25;font-family:sans-serif;letter-spacing:0px;word-spacing:0px;fill:#000000;fill-opacity:1;stroke:none;stroke-width:0.26458332"
           d="m 47.848799,61.733471 c -1.280427,0 -2.167539,0.146417 -2.661336,0.43925 -0.493797,0.292833 -0.740696,0.792372 -0.740696,1.498616 0,0.562699 0.183738,1.010562 0.551215,1.343588 0.373219,0.327284 0.878499,0.490926 1.515842,0.490926 0.878499,0 1.581873,-0.310059 2.110121,-0.930176 0.53399,-0.625859 0.800985,-1.455552 0.800985,-2.489081 v -0.353123 z m 3.160875,-0.654568 v 5.50354 H 49.42493 v -1.464165 c -0.361735,0.585666 -0.812468,1.019174 -1.3522,1.300523 -0.539731,0.275608 -1.200041,0.413412 -1.98093,0.413412 -0.987594,0 -1.774224,-0.275608 -2.35989,-0.826823 -0.579925,-0.556957 -0.869887,-1.300524 -0.869887,-2.2307 0,-1.085205 0.361735,-1.903415 1.085205,-2.45463 0.729212,-0.551215 1.814417,-0.826823 3.255615,-0.826823 h 2.222087 v -0.155029 c 0,-0.729212 -0.241157,-1.291911 -0.72347,-1.688097 -0.476571,-0.401928 -1.148365,-0.602892 -2.015381,-0.602892 -0.551215,0 -1.088076,0.06603 -1.610582,0.198093 -0.522506,0.132062 -1.024916,0.330155 -1.507229,0.594279 v -1.464166 c 0.579924,-0.223931 1.142623,-0.390444 1.688096,-0.499539 0.545474,-0.114836 1.076593,-0.172254 1.593357,-0.172254 1.395264,0 2.437405,0.361735 3.126424,1.085205 0.689019,0.72347 1.033529,1.820159 1.033529,3.290066 z"
           sodipodi:nodetypes="ssscscscssccccscscscscsscccsss" />
        <path
           inkscape:connector-curvature="0"
           id="path843"
           style="font-style:normal;font-weight:normal;font-size:17.63888931px;line-height:1.25;font-family:sans-serif;letter-spacing:0px;word-spacing:0px;fill:#008000;fill-opacity:1;stroke:none;stroke-width:0.26458332"
           d="M 55.109338,60.303757 53.57627,57.461553 h 3.074748 z m 0,3.436482 1.54168,2.842204 H 53.57627 Z" />
        <path
           d="M 46.884172,54.782991 46.393246,54.30929 c -0.12632,-0.114837 -0.238286,-0.198093 -0.335897,-0.249769 -0.09187,-0.05742 -0.175126,-0.08613 -0.249769,-0.08613 -0.218189,0 -0.378961,0.106224 -0.482314,0.318672 -0.103353,0.206705 -0.160771,0.545473 -0.172254,1.016303 h -1.076593 c 0.01149,-0.775147 0.163645,-1.372297 0.456475,-1.79145 0.292833,-0.424895 0.700503,-0.637342 1.223009,-0.637342 0.218189,0 0.419153,0.04019 0.602892,0.120578 0.183739,0.08038 0.381832,0.215318 0.594279,0.404799 l 0.490926,0.4737 c 0.12632,0.114837 0.235415,0.200964 0.327284,0.258382 0.09761,0.05168 0.183739,0.07752 0.258382,0.07752 0.21819,0 0.378961,-0.103353 0.482314,-0.310058 0.103353,-0.212448 0.160771,-0.554087 0.172255,-1.024916 h 1.076592 c -0.01149,0.775146 -0.163645,1.375167 -0.456475,1.800062 -0.292833,0.419153 -0.700503,0.62873 -1.223009,0.62873 -0.218189,0 -0.419153,-0.04019 -0.602892,-0.120578 -0.183739,-0.08039 -0.381832,-0.215319 -0.594279,-0.404799 z"
           style="font-style:normal;font-weight:normal;font-size:17.63888931px;line-height:1.25;font-family:sans-serif;letter-spacing:0px;word-spacing:0px;fill:#aa00d4;fill-opacity:1;stroke:none;stroke-width:0.26458332"
           id="path895"
           inkscape:connector-curvature="0"
           sodipodi:nodetypes="cccsccccsscccsccccsccc" />
      </g>
      <rect
         y="49.511932"
         x="34.679428"
         height="25.135416"
         width="26.080357"
         id="rect943"
         style="opacity:1;fill:none;fill-opacity:1;stroke:#808080;stroke-width:0.75;stroke-linecap:round;stroke-linejoin:bevel;stroke-miterlimit:4;stroke-dasharray:1.50000002, 3.00000004;stroke-dashoffset:0;stroke-opacity:1" />
    </g>
    <text
       xml:space="preserve"
       style="font-style:normal;font-weight:normal;font-size:10.58333302px;line-height:1.25;font-family:sans-serif;letter-spacing:0px;word-spacing:0px;fill:#808080;fill-opacity:1;stroke:none;stroke-width:0.26458332"
       x="36.447384"
       y="83.23674"
       id="text947"><tspan
         sodipodi:role="line"
         id="tspan945"
         x="36.447384"
         y="83.23674"
         style="font-weight:normal;font-size:7.0555563px;fill:#808080;fill-opacity:1;stroke-width:0.26458332">phone</tspan></text>
    <g
       id="g967"
       transform="translate(0,0.27532578)">
      <g
         transform="translate(-1.4637451e-6,0.32787461)"
         id="g907">
        <path
           inkscape:connector-curvature="0"
           id="path879"
           style="font-style:normal;font-weight:normal;font-size:17.63888931px;line-height:1.25;font-family:sans-serif;letter-spacing:0px;word-spacing:0px;fill:#aa0000;fill-opacity:1;stroke:none;stroke-width:0.26458332"
           d="m 82.748559,65.662231 v 4.78007 h -1.171333 v -4.78007 z" />
        <path
           inkscape:connector-curvature="0"
           id="path881"
           style="font-style:normal;font-weight:normal;font-size:medium;line-height:1.25;font-family:sans-serif;letter-spacing:0px;word-spacing:0px;fill:#000000;fill-opacity:1;stroke:none;stroke-width:0.26458332"
           d="m 87.821462,55.447523 v 2.738851 h 3.264228 v 1.231622 h -3.264228 v 5.236545 q 0,1.179945 0.318672,1.515842 0.327284,0.335897 1.317749,0.335897 h 1.627807 v 1.326362 h -1.627807 q -1.834514,0 -2.532145,-0.680407 -0.697632,-0.689019 -0.697632,-2.497694 v -5.236545 h -1.16272 v -1.231622 h 1.16272 v -2.738851 z" />
        <path
           inkscape:connector-curvature="0"
           id="path883"
           style="font-style:normal;font-weight:normal;font-size:medium;line-height:1.25;font-family:sans-serif;letter-spacing:0px;word-spacing:0px;fill:#0000ff;fill-opacity:1;stroke:none;stroke-width:0.26458332"
           d="m 91.507714,51.451212 q 1.929254,0 3.884345,0.508152 1.955092,0.508151 3.979086,1.524455 v 1.085205 q -1.972317,-0.895725 -3.927409,-1.343588 -1.946479,-0.447862 -3.936022,-0.447862 -1.989543,0 -3.927409,0.447862 -1.937866,0.43925 -3.918796,1.343588 v -1.085205 q 2.032606,-1.024916 3.979085,-1.524455 1.946479,-0.508152 3.86712,-0.508152 z" />
        <path
           inkscape:connector-curvature="0"
           id="path885"
           style="font-style:normal;font-weight:normal;font-size:medium;line-height:1.25;font-family:sans-serif;letter-spacing:0px;word-spacing:0px;fill:#000000;fill-opacity:1;stroke:none;stroke-width:0.26458332"
           d="M 93.152747,68.004896 V 57.51458 q 0,-1.610582 0.749309,-2.342665 0.749308,-0.740695 2.377116,-0.740695 h 1.498616 v 1.317749 h -1.515842 q -0.852661,0 -1.188558,0.344509 -0.327284,0.34451 -0.327284,1.240235 v 10.671183 q 0,1.843127 -0.706245,2.669949 -0.697631,0.826823 -2.256537,0.826823 H 91.18043 v -1.343587 h 0.422024 q 0.904338,0 1.223009,-0.422024 0.327284,-0.413412 0.327284,-1.731161 z" />
      </g>
      <rect
         style="opacity:1;fill:none;fill-opacity:1;stroke:#808080;stroke-width:0.75;stroke-linecap:round;stroke-linejoin:bevel;stroke-miterlimit:4;stroke-dasharray:1.50000002, 3.00000004;stroke-dashoffset:0;stroke-opacity:1"
         id="rect955"
         width="26.080357"
         height="25.135416"
         x="77.434006"
         y="49.236607" />
    </g>
    <text
       id="text959"
       y="83.23674"
       x="79.29657"
       style="font-style:normal;font-weight:normal;font-size:10.58333302px;line-height:1.25;font-family:sans-serif;letter-spacing:0px;word-spacing:0px;fill:#808080;fill-opacity:1;stroke:none;stroke-width:0.26458332"
       xml:space="preserve"><tspan
         style="font-weight:normal;font-size:7.0555563px;fill:#808080;fill-opacity:1;stroke-width:0.26458332"
         y="83.23674"
         x="79.29657"
         id="tspan957"
         sodipodi:role="line">phone</tspan></text>
    <g
       id="g1003">
      <path
         sodipodi:nodetypes="cc"
         inkscape:connector-curvature="0"
         id="path951"
         d="m 46.302083,42.433036 c 3.481566,4.173142 6.344667,8.552438 8.315475,13.229166"
         style="fill:none;stroke:#008000;stroke-width:0.26458332px;stroke-linecap:butt;stroke-linejoin:miter;stroke-opacity:1" />
      <circle
         r="0.51971728"
         cy="42.404682"
         cx="46.160339"
         id="path978"
         style="opacity:1;fill:#008000;fill-opacity:1;stroke:none;stroke-width:0.75;stroke-linecap:round;stroke-linejoin:bevel;stroke-miterlimit:4;stroke-dasharray:1.50000002, 3.00000004;stroke-dashoffset:0;stroke-opacity:1" />
    </g>
    <g
       id="g997">
      <path
         sodipodi:nodetypes="ccc"
         inkscape:connector-curvature="0"
         id="path949"
         d="M 43.089284,69.269345 C 37.989022,69.232713 33.159055,68.621703 30.049107,64.355654 36.72403,64.057372 42.130625,62.33222 42.805804,55.284226"
         style="fill:none;stroke:#aa00d4;stroke-width:0.26458332px;stroke-linecap:butt;stroke-linejoin:miter;stroke-opacity:1" />
      <circle
         r="0.51971728"
         cy="64.354729"
         cx="30.122358"
         id="path978-3"
         style="opacity:1;fill:#aa00d4;fill-opacity:1;stroke:none;stroke-width:0.75;stroke-linecap:round;stroke-linejoin:bevel;stroke-miterlimit:4;stroke-dasharray:1.50000004, 3.00000007;stroke-dashoffset:0;stroke-opacity:1" />
    </g>
    <g
       id="g1009">
      <path
         sodipodi:nodetypes="ccc"
         inkscape:connector-curvature="0"
         id="path953"
         d="M 82.115326,65.017112 C 82.452169,59.139505 83.70347,50.989522 77.107142,46.30729 50.520406,45.820661 40.654623,48.093801 39.970982,51.88244"
         style="fill:none;stroke:#aa0000;stroke-width:0.26458332px;stroke-linecap:butt;stroke-linejoin:miter;stroke-opacity:1" />
      <circle
         style="opacity:1;fill:#aa0000;fill-opacity:1;stroke:none;stroke-width:0.75;stroke-linecap:round;stroke-linejoin:bevel;stroke-miterlimit:4;stroke-dasharray:1.50000002, 3.00000004;stroke-dashoffset:0;stroke-opacity:1"
         id="circle999"
         cx="77.154388"
         cy="46.278938"
         r="0.51971728" />
    </g>
    <g
       id="g1017">
      <circle
         r="0.51971728"
         cy="46.089951"
         cx="94.872025"
         id="circle1005"
         style="opacity:1;fill:#0000ff;fill-opacity:1;stroke:none;stroke-width:0.75;stroke-linecap:round;stroke-linejoin:bevel;stroke-miterlimit:4;stroke-dasharray:1.50000002, 3.00000004;stroke-dashoffset:0;stroke-opacity:1" />
      <path
         sodipodi:nodetypes="cc"
         inkscape:connector-curvature="0"
         id="path1013"
         d="m 93.407366,51.504463 1.464657,-5.433406"
         style="fill:none;stroke:#0000ff;stroke-width:0.26458332px;stroke-linecap:butt;stroke-linejoin:miter;stroke-opacity:1" />
    </g>
    <g
       id="g1023"
       transform="rotate(-75,66.391788,52.665449)">
      <path
         style="fill:none;stroke:#000000;stroke-width:0.26458332px;stroke-linecap:butt;stroke-linejoin:miter;stroke-opacity:1"
         d="M 54.377221,76.712287 C 48.569466,75.495643 57.545425,60.326501 30.049107,64.355654 36.72403,64.057372 45.188892,49.28433 48.14113,42.702302"
         id="path1019"
         inkscape:connector-curvature="0"
         sodipodi:nodetypes="ccc" />
      <circle
         style="opacity:1;fill:#000000;fill-opacity:1;stroke:none;stroke-width:0.75;stroke-linecap:round;stroke-linejoin:bevel;stroke-miterlimit:4;stroke-dasharray:1.50000004, 3.00000007;stroke-dashoffset:0;stroke-opacity:1"
         id="circle1021"
         cx="30.122358"
         cy="64.354729"
         r="0.51971728" />
    </g>
    <g
       transform="matrix(0.25881905,0.96592583,0.96592583,-0.25881905,54.063108,54.891173)"
       id="g1029">
      <path
         sodipodi:nodetypes="ccc"
         inkscape:connector-curvature="0"
         id="path1025"
         d="M 21.497327,9.8626888 C 44.147946,5.3250536 58.172014,60.158607 30.675696,64.18776 31.293179,60.06128 29.848968,58.067045 28.480353,55.994627"
         style="fill:none;stroke:#d45500;stroke-width:0.26458332px;stroke-linecap:butt;stroke-linejoin:miter;stroke-opacity:1" />
      <circle
         r="0.51971728"
         cy="64.207985"
         cx="30.670004"
         id="circle1027"
         style="opacity:1;fill:#d45500;fill-opacity:1;stroke:none;stroke-width:0.75;stroke-linecap:round;stroke-linejoin:bevel;stroke-miterlimit:4;stroke-dasharray:1.50000004, 3.00000007;stroke-dashoffset:0;stroke-opacity:1" />
    </g>
    <path
       style="fill:none;stroke:#000000;stroke-width:0.26499999;stroke-linecap:butt;stroke-linejoin:miter;stroke-miterlimit:4;stroke-dasharray:0.26499999, 0.52999997;stroke-dashoffset:0;stroke-opacity:1"
       d="M 40.254465,36.385415 103.8962,30.007069 75.078064,38.044386"
       id="path1031"
       inkscape:connector-curvature="0"
       sodipodi:nodetypes="ccc" />
    <path
       style="fill:none;stroke:#000000;stroke-width:0.26499999;stroke-linecap:butt;stroke-linejoin:miter;stroke-miterlimit:4;stroke-dasharray:0.26499999, 0.52999997;stroke-dashoffset:0;stroke-opacity:1"
       d="m 97.152472,37.548105 6.914608,-7.525469 20.07962,24.831172"
       id="path1033"
       inkscape:connector-curvature="0"
       sodipodi:nodetypes="ccc" />
    <circle
       r="0.51971728"
       cy="29.880222"
       cx="103.89566"
       id="circle1005-6"
       style="opacity:1;fill:#000000;fill-opacity:1;stroke:none;stroke-width:0.75;stroke-linecap:round;stroke-linejoin:bevel;stroke-miterlimit:4;stroke-dasharray:1.50000004, 3.00000007;stroke-dashoffset:0;stroke-opacity:1" />
  </g>
</svg>
